<?xml version="1.0" encoding="UTF-8" standalone="no"?>
<!DOCTYPE svg PUBLIC "-//W3C//DTD SVG 1.1//EN"
 "http://www.w3.org/Graphics/SVG/1.1/DTD/svg11.dtd">
<!-- Generated by graphviz version 2.42.4 (0)
 -->
<!-- Title: tree Pages: 1 -->
<svg width="188pt" height="386pt"
 viewBox="0.00 0.00 187.60 385.60" xmlns="http://www.w3.org/2000/svg" xmlns:xlink="http://www.w3.org/1999/xlink">
<g id="graph0" class="graph" transform="scale(1 1) rotate(0) translate(28.8 356.8)">
<title>tree</title>
<polygon fill="#ffffff" stroke="transparent" points="-28.8,28.8 -28.8,-356.8 158.8,-356.8 158.8,28.8 -28.8,28.8"/>
<!-- node_cfd3c9f6a4274519a1107f126c7d3e6e -->
<g id="node1" class="node">
<title>node_cfd3c9f6a4274519a1107f126c7d3e6e</title>
<path fill="#fef2f2" stroke="#ef4444" stroke-width="1.2" d="M118,-328C118,-328 12,-328 12,-328 6,-328 0,-322 0,-316 0,-316 0,-285 0,-285 0,-279 6,-273 12,-273 12,-273 118,-273 118,-273 124,-273 130,-279 130,-285 130,-285 130,-316 130,-316 130,-322 124,-328 118,-328"/>
<text text-anchor="middle" x="65" y="-309" font-family="Inter,Helvetica Neue,Arial,sans-serif" font-size="10.00" fill="#991b1b">cfd3..3e6e</text>
<text text-anchor="middle" x="65" y="-298" font-family="Inter,Helvetica Neue,Arial,sans-serif" font-size="10.00" fill="#991b1b">✗ buggy &#160;0.130</text>
<text text-anchor="middle" x="65" y="-287" font-family="Inter,Helvetica Neue,Arial,sans-serif" font-size="10.00" fill="#991b1b">type&#45;check: ✓ (2 att.)</text>
</g>
<!-- node_5b65bfb25e1a4f259d17ccb97ccf9990 -->
<g id="node2" class="node">
<title>node_5b65bfb25e1a4f259d17ccb97ccf9990</title>
<path fill="#fef2f2" stroke="#ef4444" stroke-width="1.2" d="M118,-237C118,-237 12,-237 12,-237 6,-237 0,-231 0,-225 0,-225 0,-194 0,-194 0,-188 6,-182 12,-182 12,-182 118,-182 118,-182 124,-182 130,-188 130,-194 130,-194 130,-225 130,-225 130,-231 124,-237 118,-237"/>
<text text-anchor="middle" x="65" y="-218" font-family="Inter,Helvetica Neue,Arial,sans-serif" font-size="10.00" fill="#991b1b">5b65..9990</text>
<text text-anchor="middle" x="65" y="-207" font-family="Inter,Helvetica Neue,Arial,sans-serif" font-size="10.00" fill="#991b1b">✗ buggy &#160;0.609</text>
<text text-anchor="middle" x="65" y="-196" font-family="Inter,Helvetica Neue,Arial,sans-serif" font-size="10.00" fill="#991b1b">type&#45;check: ✓ (2 att.)</text>
</g>
<!-- node_cfd3c9f6a4274519a1107f126c7d3e6e&#45;&gt;node_5b65bfb25e1a4f259d17ccb97ccf9990 -->
<g id="edge1" class="edge">
<title>node_cfd3c9f6a4274519a1107f126c7d3e6e&#45;&gt;node_5b65bfb25e1a4f259d17ccb97ccf9990</title>
<path fill="none" stroke="#ef4444" stroke-width="1.2" d="M65,-272.8C65,-263.56 65,-253.09 65,-243.41"/>
<polygon fill="#ef4444" stroke="#ef4444" stroke-width="1.2" points="65,-237.18 67.7,-243.18 65.1,-240.18 65.1,-243.18 65,-243.18 64.9,-243.18 64.9,-240.18 62.3,-243.18 65,-237.18 65,-237.18"/>
</g>
<!-- node_5676b59b44d2409ba6c84f6573372c5b -->
<g id="node3" class="node">
<title>node_5676b59b44d2409ba6c84f6573372c5b</title>
<path fill="#fef2f2" stroke="#ef4444" stroke-width="1.2" d="M118,-146C118,-146 12,-146 12,-146 6,-146 0,-140 0,-134 0,-134 0,-103 0,-103 0,-97 6,-91 12,-91 12,-91 118,-91 118,-91 124,-91 130,-97 130,-103 130,-103 130,-134 130,-134 130,-140 124,-146 118,-146"/>
<text text-anchor="middle" x="65" y="-127" font-family="Inter,Helvetica Neue,Arial,sans-serif" font-size="10.00" fill="#991b1b">5676..2c5b</text>
<text text-anchor="middle" x="65" y="-116" font-family="Inter,Helvetica Neue,Arial,sans-serif" font-size="10.00" fill="#991b1b">✗ buggy &#160;0.348</text>
<text text-anchor="middle" x="65" y="-105" font-family="Inter,Helvetica Neue,Arial,sans-serif" font-size="10.00" fill="#991b1b">type&#45;check: ✗ (3 att.)</text>
</g>
<!-- node_5b65bfb25e1a4f259d17ccb97ccf9990&#45;&gt;node_5676b59b44d2409ba6c84f6573372c5b -->
<g id="edge2" class="edge">
<title>node_5b65bfb25e1a4f259d17ccb97ccf9990&#45;&gt;node_5676b59b44d2409ba6c84f6573372c5b</title>
<path fill="none" stroke="#ef4444" stroke-width="1.2" d="M65,-181.8C65,-172.56 65,-162.09 65,-152.41"/>
<polygon fill="#ef4444" stroke="#ef4444" stroke-width="1.2" points="65,-146.18 67.7,-152.18 65.1,-149.18 65.1,-152.18 65,-152.18 64.9,-152.18 64.9,-149.18 62.3,-152.18 65,-146.18 65,-146.18"/>
</g>
<!-- node_2a17627a944349df8f2f5b244947cca5 -->
<g id="node4" class="node">
<title>node_2a17627a944349df8f2f5b244947cca5</title>
<path fill="#fef2f2" stroke="#ef4444" stroke-width="1.2" d="M118,-55C118,-55 12,-55 12,-55 6,-55 0,-49 0,-43 0,-43 0,-12 0,-12 0,-6 6,0 12,0 12,0 118,0 118,0 124,0 130,-6 130,-12 130,-12 130,-43 130,-43 130,-49 124,-55 118,-55"/>
<text text-anchor="middle" x="65" y="-36" font-family="Inter,Helvetica Neue,Arial,sans-serif" font-size="10.00" fill="#991b1b">2a17..cca5</text>
<text text-anchor="middle" x="65" y="-25" font-family="Inter,Helvetica Neue,Arial,sans-serif" font-size="10.00" fill="#991b1b">✗ buggy &#160;0.435</text>
<text text-anchor="middle" x="65" y="-14" font-family="Inter,Helvetica Neue,Arial,sans-serif" font-size="10.00" fill="#991b1b">type&#45;check: ✓ (3 att.)</text>
</g>
<!-- node_5676b59b44d2409ba6c84f6573372c5b&#45;&gt;node_2a17627a944349df8f2f5b244947cca5 -->
<g id="edge3" class="edge">
<title>node_5676b59b44d2409ba6c84f6573372c5b&#45;&gt;node_2a17627a944349df8f2f5b244947cca5</title>
<path fill="none" stroke="#ef4444" stroke-width="1.2" d="M65,-90.8C65,-81.56 65,-71.09 65,-61.41"/>
<polygon fill="#ef4444" stroke="#ef4444" stroke-width="1.2" points="65,-55.18 67.7,-61.18 65.1,-58.18 65.1,-61.18 65,-61.18 64.9,-61.18 64.9,-58.18 62.3,-61.18 65,-55.18 65,-55.18"/>
</g>
</g>
</svg>
