<?xml version="1.0" encoding="UTF-8" standalone="no"?>
<!DOCTYPE svg PUBLIC "-//W3C//DTD SVG 1.1//EN"
 "http://www.w3.org/Graphics/SVG/1.1/DTD/svg11.dtd">
<!-- Generated by graphviz version 2.42.4 (0)
 -->
<!-- Title: combined Pages: 1 -->
<svg width="585pt" height="295pt"
 viewBox="0.00 0.00 584.60 294.60" xmlns="http://www.w3.org/2000/svg" xmlns:xlink="http://www.w3.org/1999/xlink">
<g id="graph0" class="graph" transform="scale(1 1) rotate(0) translate(28.8 265.8)">
<title>combined</title>
<polygon fill="#ffffff" stroke="transparent" points="-28.8,28.8 -28.8,-265.8 555.8,-265.8 555.8,28.8 -28.8,28.8"/>
<!-- node_afe8916b68d044e7b94e57e4b95b48b7 -->
<g id="node1" class="node">
<title>node_afe8916b68d044e7b94e57e4b95b48b7</title>
<path fill="#fef2f2" stroke="#ef4444" stroke-width="1.2" d="M290,-237C290,-237 184,-237 184,-237 178,-237 172,-231 172,-225 172,-225 172,-194 172,-194 172,-188 178,-182 184,-182 184,-182 290,-182 290,-182 296,-182 302,-188 302,-194 302,-194 302,-225 302,-225 302,-231 296,-237 290,-237"/>
<text text-anchor="middle" x="237" y="-218" font-family="Inter,Helvetica Neue,Arial,sans-serif" font-size="10.00" fill="#991b1b">afe8..48b7</text>
<text text-anchor="middle" x="237" y="-207" font-family="Inter,Helvetica Neue,Arial,sans-serif" font-size="10.00" fill="#991b1b">✗ buggy &#160;0.200</text>
<text text-anchor="middle" x="237" y="-196" font-family="Inter,Helvetica Neue,Arial,sans-serif" font-size="10.00" fill="#991b1b">type&#45;check: ✓ (3 att.)</text>
</g>
<!-- node_7c7ef2d6f0a6496489af259d0e348e30 -->
<g id="node2" class="node">
<title>node_7c7ef2d6f0a6496489af259d0e348e30</title>
<path fill="#fef2f2" stroke="#ef4444" stroke-width="1.2" d="M204,-146C204,-146 98,-146 98,-146 92,-146 86,-140 86,-134 86,-134 86,-103 86,-103 86,-97 92,-91 98,-91 98,-91 204,-91 204,-91 210,-91 216,-97 216,-103 216,-103 216,-134 216,-134 216,-140 210,-146 204,-146"/>
<text text-anchor="middle" x="151" y="-127" font-family="Inter,Helvetica Neue,Arial,sans-serif" font-size="10.00" fill="#991b1b">7c7e..8e30</text>
<text text-anchor="middle" x="151" y="-116" font-family="Inter,Helvetica Neue,Arial,sans-serif" font-size="10.00" fill="#991b1b">✗ buggy &#160;0.533</text>
<text text-anchor="middle" x="151" y="-105" font-family="Inter,Helvetica Neue,Arial,sans-serif" font-size="10.00" fill="#991b1b">type&#45;check: ✓ (3 att.)</text>
</g>
<!-- node_afe8916b68d044e7b94e57e4b95b48b7&#45;&gt;node_7c7ef2d6f0a6496489af259d0e348e30 -->
<g id="edge1" class="edge">
<title>node_afe8916b68d044e7b94e57e4b95b48b7&#45;&gt;node_7c7ef2d6f0a6496489af259d0e348e30</title>
<path fill="none" stroke="#ef4444" stroke-width="1.2" d="M211.2,-181.8C201.76,-172.03 191,-160.89 181.21,-150.76"/>
<polygon fill="#ef4444" stroke="#ef4444" stroke-width="1.2" points="176.78,-146.18 182.9,-148.62 178.94,-148.27 181.03,-150.43 180.95,-150.5 180.88,-150.57 178.8,-148.41 179.01,-152.38 176.78,-146.18 176.78,-146.18"/>
</g>
<!-- node_eb31459a2c99427a80d7f28188edc9d9 -->
<g id="node5" class="node">
<title>node_eb31459a2c99427a80d7f28188edc9d9</title>
<path fill="#fef2f2" stroke="#ef4444" stroke-width="1.2" d="M377,-146C377,-146 271,-146 271,-146 265,-146 259,-140 259,-134 259,-134 259,-103 259,-103 259,-97 265,-91 271,-91 271,-91 377,-91 377,-91 383,-91 389,-97 389,-103 389,-103 389,-134 389,-134 389,-140 383,-146 377,-146"/>
<text text-anchor="middle" x="324" y="-127" font-family="Inter,Helvetica Neue,Arial,sans-serif" font-size="10.00" fill="#991b1b">eb31..c9d9</text>
<text text-anchor="middle" x="324" y="-116" font-family="Inter,Helvetica Neue,Arial,sans-serif" font-size="10.00" fill="#991b1b">✗ buggy &#160;0.533</text>
<text text-anchor="middle" x="324" y="-105" font-family="Inter,Helvetica Neue,Arial,sans-serif" font-size="10.00" fill="#991b1b">type&#45;check: ✓ (2 att.)</text>
</g>
<!-- node_afe8916b68d044e7b94e57e4b95b48b7&#45;&gt;node_eb31459a2c99427a80d7f28188edc9d9 -->
<g id="edge2" class="edge">
<title>node_afe8916b68d044e7b94e57e4b95b48b7&#45;&gt;node_eb31459a2c99427a80d7f28188edc9d9</title>
<path fill="none" stroke="#ef4444" stroke-width="1.2" d="M263.1,-181.8C272.74,-171.94 283.74,-160.69 293.71,-150.49"/>
<polygon fill="#ef4444" stroke="#ef4444" stroke-width="1.2" points="297.92,-146.18 295.65,-152.36 295.89,-148.4 293.79,-150.54 293.72,-150.47 293.65,-150.4 295.75,-148.26 291.79,-148.59 297.92,-146.18 297.92,-146.18"/>
</g>
<!-- node_a9652cd3f59e4f66b1bedc6a8d8eff2d -->
<g id="node3" class="node">
<title>node_a9652cd3f59e4f66b1bedc6a8d8eff2d</title>
<path fill="#fef2f2" stroke="#ef4444" stroke-width="1.2" d="M118,-55C118,-55 12,-55 12,-55 6,-55 0,-49 0,-43 0,-43 0,-12 0,-12 0,-6 6,0 12,0 12,0 118,0 118,0 124,0 130,-6 130,-12 130,-12 130,-43 130,-43 130,-49 124,-55 118,-55"/>
<text text-anchor="middle" x="65" y="-36" font-family="Inter,Helvetica Neue,Arial,sans-serif" font-size="10.00" fill="#991b1b">a965..ff2d</text>
<text text-anchor="middle" x="65" y="-25" font-family="Inter,Helvetica Neue,Arial,sans-serif" font-size="10.00" fill="#991b1b">✗ buggy &#160;0.000</text>
<text text-anchor="middle" x="65" y="-14" font-family="Inter,Helvetica Neue,Arial,sans-serif" font-size="10.00" fill="#991b1b">type&#45;check: ✓ (1 att.)</text>
</g>
<!-- node_7c7ef2d6f0a6496489af259d0e348e30&#45;&gt;node_a9652cd3f59e4f66b1bedc6a8d8eff2d -->
<g id="edge3" class="edge">
<title>node_7c7ef2d6f0a6496489af259d0e348e30&#45;&gt;node_a9652cd3f59e4f66b1bedc6a8d8eff2d</title>
<path fill="none" stroke="#ef4444" stroke-width="1.2" d="M125.2,-90.8C115.76,-81.03 105,-69.89 95.21,-59.76"/>
<polygon fill="#ef4444" stroke="#ef4444" stroke-width="1.2" points="90.78,-55.18 96.9,-57.62 92.94,-57.27 95.03,-59.43 94.95,-59.5 94.88,-59.57 92.8,-57.41 93.01,-61.38 90.78,-55.18 90.78,-55.18"/>
</g>
<!-- node_4bd10cd95ad24134a771531aee54f96e -->
<g id="node4" class="node">
<title>node_4bd10cd95ad24134a771531aee54f96e</title>
<path fill="#fef2f2" stroke="#ef4444" stroke-width="1.2" d="M291,-55C291,-55 185,-55 185,-55 179,-55 173,-49 173,-43 173,-43 173,-12 173,-12 173,-6 179,0 185,0 185,0 291,0 291,0 297,0 303,-6 303,-12 303,-12 303,-43 303,-43 303,-49 297,-55 291,-55"/>
<text text-anchor="middle" x="238" y="-36" font-family="Inter,Helvetica Neue,Arial,sans-serif" font-size="10.00" fill="#991b1b">4bd1..f96e</text>
<text text-anchor="middle" x="238" y="-25" font-family="Inter,Helvetica Neue,Arial,sans-serif" font-size="10.00" fill="#991b1b">✗ buggy &#160;0.333</text>
<text text-anchor="middle" x="238" y="-14" font-family="Inter,Helvetica Neue,Arial,sans-serif" font-size="10.00" fill="#991b1b">type&#45;check: ✓ (2 att.)</text>
</g>
<!-- node_7c7ef2d6f0a6496489af259d0e348e30&#45;&gt;node_4bd10cd95ad24134a771531aee54f96e -->
<g id="edge4" class="edge">
<title>node_7c7ef2d6f0a6496489af259d0e348e30&#45;&gt;node_4bd10cd95ad24134a771531aee54f96e</title>
<path fill="none" stroke="#ef4444" stroke-width="1.2" d="M177.1,-90.8C186.74,-80.94 197.74,-69.69 207.71,-59.49"/>
<polygon fill="#ef4444" stroke="#ef4444" stroke-width="1.2" points="211.92,-55.18 209.65,-61.36 209.89,-57.4 207.79,-59.54 207.72,-59.47 207.65,-59.4 209.75,-57.26 205.79,-57.59 211.92,-55.18 211.92,-55.18"/>
</g>
<!-- node_3a36b7ae2ae543db8ce10e6f821fbbfa -->
<g id="node6" class="node">
<title>node_3a36b7ae2ae543db8ce10e6f821fbbfa</title>
<path fill="#fef2f2" stroke="#ef4444" stroke-width="1.2" d="M515,-191C515,-191 409,-191 409,-191 403,-191 397,-185 397,-179 397,-179 397,-148 397,-148 397,-142 403,-136 409,-136 409,-136 515,-136 515,-136 521,-136 527,-142 527,-148 527,-148 527,-179 527,-179 527,-185 521,-191 515,-191"/>
<text text-anchor="middle" x="462" y="-172" font-family="Inter,Helvetica Neue,Arial,sans-serif" font-size="10.00" fill="#991b1b">3a36..bbfa</text>
<text text-anchor="middle" x="462" y="-161" font-family="Inter,Helvetica Neue,Arial,sans-serif" font-size="10.00" fill="#991b1b">✗ buggy &#160;0.133</text>
<text text-anchor="middle" x="462" y="-150" font-family="Inter,Helvetica Neue,Arial,sans-serif" font-size="10.00" fill="#991b1b">type&#45;check: ✓ (2 att.)</text>
</g>
<!-- node_2a3c7b9beae9464191504cf9b1cdda45 -->
<g id="node7" class="node">
<title>node_2a3c7b9beae9464191504cf9b1cdda45</title>
<path fill="#fef2f2" stroke="#ef4444" stroke-width="1.2" d="M515,-100C515,-100 409,-100 409,-100 403,-100 397,-94 397,-88 397,-88 397,-57 397,-57 397,-51 403,-45 409,-45 409,-45 515,-45 515,-45 521,-45 527,-51 527,-57 527,-57 527,-88 527,-88 527,-94 521,-100 515,-100"/>
<text text-anchor="middle" x="462" y="-81" font-family="Inter,Helvetica Neue,Arial,sans-serif" font-size="10.00" fill="#991b1b">2a3c..da45</text>
<text text-anchor="middle" x="462" y="-70" font-family="Inter,Helvetica Neue,Arial,sans-serif" font-size="10.00" fill="#991b1b">✗ buggy &#160;0.267</text>
<text text-anchor="middle" x="462" y="-59" font-family="Inter,Helvetica Neue,Arial,sans-serif" font-size="10.00" fill="#991b1b">type&#45;check: ✓ (2 att.)</text>
</g>
<!-- node_3a36b7ae2ae543db8ce10e6f821fbbfa&#45;&gt;node_2a3c7b9beae9464191504cf9b1cdda45 -->
<g id="edge5" class="edge">
<title>node_3a36b7ae2ae543db8ce10e6f821fbbfa&#45;&gt;node_2a3c7b9beae9464191504cf9b1cdda45</title>
<path fill="none" stroke="#ef4444" stroke-width="1.2" d="M462,-135.8C462,-126.56 462,-116.09 462,-106.41"/>
<polygon fill="#ef4444" stroke="#ef4444" stroke-width="1.2" points="462,-100.18 464.7,-106.18 462.1,-103.18 462.1,-106.18 462,-106.18 461.9,-106.18 461.9,-103.18 459.3,-106.18 462,-100.18 462,-100.18"/>
</g>
</g>
</svg>
