<?xml version="1.0" encoding="UTF-8" standalone="no"?>
<!DOCTYPE svg PUBLIC "-//W3C//DTD SVG 1.1//EN"
 "http://www.w3.org/Graphics/SVG/1.1/DTD/svg11.dtd">
<!-- Generated by graphviz version 2.42.4 (0)
 -->
<!-- Title: tree Pages: 1 -->
<svg width="188pt" height="204pt"
 viewBox="0.00 0.00 187.60 203.60" xmlns="http://www.w3.org/2000/svg" xmlns:xlink="http://www.w3.org/1999/xlink">
<g id="graph0" class="graph" transform="scale(1 1) rotate(0) translate(28.8 174.8)">
<title>tree</title>
<polygon fill="#ffffff" stroke="transparent" points="-28.8,28.8 -28.8,-174.8 158.8,-174.8 158.8,28.8 -28.8,28.8"/>
<!-- node_499b3b6027744b9098b23c8400fcf409 -->
<g id="node1" class="node">
<title>node_499b3b6027744b9098b23c8400fcf409</title>
<path fill="#fef2f2" stroke="#ef4444" stroke-width="1.2" d="M118,-146C118,-146 12,-146 12,-146 6,-146 0,-140 0,-134 0,-134 0,-103 0,-103 0,-97 6,-91 12,-91 12,-91 118,-91 118,-91 124,-91 130,-97 130,-103 130,-103 130,-134 130,-134 130,-140 124,-146 118,-146"/>
<text text-anchor="middle" x="65" y="-127" font-family="Inter,Helvetica Neue,Arial,sans-serif" font-size="10.00" fill="#991b1b">499b..f409</text>
<text text-anchor="middle" x="65" y="-116" font-family="Inter,Helvetica Neue,Arial,sans-serif" font-size="10.00" fill="#991b1b">✗ buggy &#160;0.083</text>
<text text-anchor="middle" x="65" y="-105" font-family="Inter,Helvetica Neue,Arial,sans-serif" font-size="10.00" fill="#991b1b">type&#45;check: ✓ (2 att.)</text>
</g>
<!-- node_337faad0f45d4fd6aa6ec18f4736c025 -->
<g id="node2" class="node">
<title>node_337faad0f45d4fd6aa6ec18f4736c025</title>
<path fill="#fef2f2" stroke="#ef4444" stroke-width="1.2" d="M118,-55C118,-55 12,-55 12,-55 6,-55 0,-49 0,-43 0,-43 0,-12 0,-12 0,-6 6,0 12,0 12,0 118,0 118,0 124,0 130,-6 130,-12 130,-12 130,-43 130,-43 130,-49 124,-55 118,-55"/>
<text text-anchor="middle" x="65" y="-36" font-family="Inter,Helvetica Neue,Arial,sans-serif" font-size="10.00" fill="#991b1b">337f..c025</text>
<text text-anchor="middle" x="65" y="-25" font-family="Inter,Helvetica Neue,Arial,sans-serif" font-size="10.00" fill="#991b1b">✗ buggy &#160;0.083</text>
<text text-anchor="middle" x="65" y="-14" font-family="Inter,Helvetica Neue,Arial,sans-serif" font-size="10.00" fill="#991b1b">type&#45;check: ✓ (1 att.)</text>
</g>
<!-- node_499b3b6027744b9098b23c8400fcf409&#45;&gt;node_337faad0f45d4fd6aa6ec18f4736c025 -->
<g id="edge1" class="edge">
<title>node_499b3b6027744b9098b23c8400fcf409&#45;&gt;node_337faad0f45d4fd6aa6ec18f4736c025</title>
<path fill="none" stroke="#ef4444" stroke-width="1.2" d="M65,-90.8C65,-81.56 65,-71.09 65,-61.41"/>
<polygon fill="#ef4444" stroke="#ef4444" stroke-width="1.2" points="65,-55.18 67.7,-61.18 65.1,-58.18 65.1,-61.18 65,-61.18 64.9,-61.18 64.9,-58.18 62.3,-61.18 65,-55.18 65,-55.18"/>
</g>
</g>
</svg>
