<?xml version="1.0" encoding="UTF-8" standalone="no"?>
<!DOCTYPE svg PUBLIC "-//W3C//DTD SVG 1.1//EN"
 "http://www.w3.org/Graphics/SVG/1.1/DTD/svg11.dtd">
<!-- Generated by graphviz version 2.42.4 (0)
 -->
<!-- Title: tree Pages: 1 -->
<svg width="188pt" height="295pt"
 viewBox="0.00 0.00 187.60 294.60" xmlns="http://www.w3.org/2000/svg" xmlns:xlink="http://www.w3.org/1999/xlink">
<g id="graph0" class="graph" transform="scale(1 1) rotate(0) translate(28.8 265.8)">
<title>tree</title>
<polygon fill="#ffffff" stroke="transparent" points="-28.8,28.8 -28.8,-265.8 158.8,-265.8 158.8,28.8 -28.8,28.8"/>
<!-- node_ba44ebf020a948dcb0047067d9429725 -->
<g id="node1" class="node">
<title>node_ba44ebf020a948dcb0047067d9429725</title>
<path fill="#fef2f2" stroke="#ef4444" stroke-width="1.2" d="M118,-237C118,-237 12,-237 12,-237 6,-237 0,-231 0,-225 0,-225 0,-194 0,-194 0,-188 6,-182 12,-182 12,-182 118,-182 118,-182 124,-182 130,-188 130,-194 130,-194 130,-225 130,-225 130,-231 124,-237 118,-237"/>
<text text-anchor="middle" x="65" y="-218" font-family="Inter,Helvetica Neue,Arial,sans-serif" font-size="10.00" fill="#991b1b">ba44..9725</text>
<text text-anchor="middle" x="65" y="-207" font-family="Inter,Helvetica Neue,Arial,sans-serif" font-size="10.00" fill="#991b1b">✗ buggy &#160;0.200</text>
<text text-anchor="middle" x="65" y="-196" font-family="Inter,Helvetica Neue,Arial,sans-serif" font-size="10.00" fill="#991b1b">type&#45;check: ✓ (2 att.)</text>
</g>
<!-- node_1a9cd74b5f49407696b6fbee7ba5bc40 -->
<g id="node2" class="node">
<title>node_1a9cd74b5f49407696b6fbee7ba5bc40</title>
<path fill="#fef2f2" stroke="#ef4444" stroke-width="1.2" d="M118,-146C118,-146 12,-146 12,-146 6,-146 0,-140 0,-134 0,-134 0,-103 0,-103 0,-97 6,-91 12,-91 12,-91 118,-91 118,-91 124,-91 130,-97 130,-103 130,-103 130,-134 130,-134 130,-140 124,-146 118,-146"/>
<text text-anchor="middle" x="65" y="-127" font-family="Inter,Helvetica Neue,Arial,sans-serif" font-size="10.00" fill="#991b1b">1a9c..bc40</text>
<text text-anchor="middle" x="65" y="-116" font-family="Inter,Helvetica Neue,Arial,sans-serif" font-size="10.00" fill="#991b1b">✗ buggy &#160;0.200</text>
<text text-anchor="middle" x="65" y="-105" font-family="Inter,Helvetica Neue,Arial,sans-serif" font-size="10.00" fill="#991b1b">type&#45;check: ✓ (3 att.)</text>
</g>
<!-- node_ba44ebf020a948dcb0047067d9429725&#45;&gt;node_1a9cd74b5f49407696b6fbee7ba5bc40 -->
<g id="edge1" class="edge">
<title>node_ba44ebf020a948dcb0047067d9429725&#45;&gt;node_1a9cd74b5f49407696b6fbee7ba5bc40</title>
<path fill="none" stroke="#ef4444" stroke-width="1.2" d="M65,-181.8C65,-172.56 65,-162.09 65,-152.41"/>
<polygon fill="#ef4444" stroke="#ef4444" stroke-width="1.2" points="65,-146.18 67.7,-152.18 65.1,-149.18 65.1,-152.18 65,-152.18 64.9,-152.18 64.9,-149.18 62.3,-152.18 65,-146.18 65,-146.18"/>
</g>
<!-- node_6637738e3bb84bd6abf80f07f90e736e -->
<g id="node3" class="node">
<title>node_6637738e3bb84bd6abf80f07f90e736e</title>
<path fill="#eff6ff" stroke="#3b82f6" stroke-width="1.2" d="M118,-55C118,-55 12,-55 12,-55 6,-55 0,-49 0,-43 0,-43 0,-12 0,-12 0,-6 6,0 12,0 12,0 118,0 118,0 124,0 130,-6 130,-12 130,-12 130,-43 130,-43 130,-49 124,-55 118,-55"/>
<text text-anchor="middle" x="65" y="-36" font-family="Inter,Helvetica Neue,Arial,sans-serif" font-size="10.00" fill="#1e40af">6637..736e</text>
<text text-anchor="middle" x="65" y="-25" font-family="Inter,Helvetica Neue,Arial,sans-serif" font-size="10.00" fill="#1e40af">score: 0.700</text>
<text text-anchor="middle" x="65" y="-14" font-family="Inter,Helvetica Neue,Arial,sans-serif" font-size="10.00" fill="#1e40af">type&#45;check: ✓ (1 att.)</text>
</g>
<!-- node_1a9cd74b5f49407696b6fbee7ba5bc40&#45;&gt;node_6637738e3bb84bd6abf80f07f90e736e -->
<g id="edge2" class="edge">
<title>node_1a9cd74b5f49407696b6fbee7ba5bc40&#45;&gt;node_6637738e3bb84bd6abf80f07f90e736e</title>
<path fill="none" stroke="#3b82f6" stroke-width="1.2" d="M65,-90.8C65,-81.56 65,-71.09 65,-61.41"/>
<polygon fill="#3b82f6" stroke="#3b82f6" stroke-width="1.2" points="65,-55.18 67.7,-61.18 65.1,-58.18 65.1,-61.18 65,-61.18 64.9,-61.18 64.9,-58.18 62.3,-61.18 65,-55.18 65,-55.18"/>
</g>
</g>
</svg>
